<svg xmlns="http://www.w3.org/2000/svg" width="142" height="20" fill="none">
  <g clip-path="url(#a)">
    <g clip-path="url(#b)">
      <path fill="#fff"
        d="M3.135 11.088h2.091c.376 0 .682-.07.964-.3.681-.508.681-1.454 0-1.893-.235-.138-.447-.3-.682-.3-.822-.069-1.574 0-2.373-.069v2.562Zm0 4.454h2.608c.893-.139 1.481-.947 1.199-1.823-.141-.577-.682-.877-1.199-1.016-.376-.07-.822-.07-1.198-.07h-1.41v2.909ZM.15 6.841h2.538c1.128 0 2.233 0 3.361.069.893 0 1.645.3 2.162 1.015.587.808.752 1.685.446 2.63-.14.44-.446.74-.822.947-.141.07-.235.139-.376.23.305.14.587.3.822.508.588.508.893 1.247.893 2.054 0 .877-.305 1.616-1.034 2.193-.517.438-1.128.669-1.786.738-.235 0-.446.07-.681.07H.08V15.61h.822V8.595H.08l.07-1.753Zm135.478 7.246v-.67c-.071-.507-.376-.877-.823-1.107-.822-.508-1.786-.231-2.162.669-.235.67-.235 1.246-.07 1.892.141.508.376.877.893 1.108.963.37 2.162-.439 2.162-1.454v-.438Zm-1.927 4.892c-.306-.07-.682-.139-.893-.3-.587-.3-.964-.738-1.199-1.385h.894c.07 0 .07.07.14.07.517.877 1.575 1.107 2.468.577.376-.231.517-.508.587-.947V15.68c-.07.07-.141.23-.235.3-.893 1.015-2.538.808-3.29-.23-.517-.67-.587-1.385-.517-2.193 0-.508.235-.946.447-1.385.752-1.107 2.538-1.315 3.36-.138.071.07.141.138.235.3v-.946h1.645v.669h-.822v4.846c0 1.108-.682 1.754-1.716 1.985-.14 0-.234.069-.375.069h-.752v.023h.023Zm6.932-15.37c0-1.176-.963-2.122-2.162-2.122-1.198 0-2.162.946-2.232 2.123 0 1.177.963 2.123 2.162 2.192 1.269-.07 2.232-1.015 2.232-2.192Zm.447.3c-.07.44-.235.808-.517 1.178a2.655 2.655 0 0 1-2.844.946c-1.034-.3-1.785-1.177-1.856-2.192A2.636 2.636 0 0 1 138.025.98H138.824c.752.138 1.269.438 1.716 1.015.305.37.375.739.516 1.177v.739h.024Zm-51.935 7.893c-.141.738-.376 1.454-.517 2.192-.235 1.016-.517 2.054-.752 3.07 0 .069 0 .138-.141.138h-2.021c-.07-.23-.141-.438-.141-.67-.517-1.822-1.034-3.668-1.48-5.492 0-.138-.071-.23-.236-.23h-.516V9.265h3.196v1.546h-.823c.376 1.546.752 3.069 1.128 4.615.07-.138.07-.37.141-.508.376-1.823.752-3.669 1.198-5.423 0-.069.071-.138.142-.138h1.786c.14 0 .14.07.14.138.447 1.893.823 3.808 1.27 5.7 0 .07 0 .07.07.139l1.034-4.546H91.8V9.242h3.197v1.546h-.517c-.071 0-.142 0-.142.138-.516 1.985-1.127 4.015-1.644 6-.071.139-.071.23-.236.23h-1.785c-.142 0-.142 0-.236-.137-.446-1.685-.822-3.37-1.269-5.124.047-.023.047-.023-.023-.092Zm-10.74-2.93c-.517 1.545-.963 3-1.41 4.546h2.75c-.447-1.547-.893-3.07-1.34-4.547Zm4.983 6.668v1.685h-2.374c-.141-.508-.305-1.015-.447-1.546a7.555 7.555 0 0 0-.234-.67c0-.069-.071-.069-.141-.069H76.69c-.141 0-.141.07-.141.139-.235.67-.376 1.315-.588 1.985 0 .069 0 .069-.07.138h-2.468V15.52h.682c.141 0 .141 0 .235-.139.893-2.862 1.856-5.63 2.75-8.492 0-.139.07-.139.234-.139h2.303c.142 0 .142.07.236.139.963 2.792 1.856 5.63 2.843 8.423.07.138.07.138.235.138 0 .092.235.092.447.092Zm29.233-3.3 3.431.07c0-.877-.681-1.546-1.574-1.546-.893-.046-1.786.669-1.857 1.476Zm5.735 1.478h-5.735c.071.738.306 1.384.894 1.822.516.37 1.128.439 1.786.231.446-.138.681-.438.893-.877.07-.069.07-.138.235-.138.587 0 1.269 0 1.856-.07 0 .14-.07.232-.07.3-.447 1.385-1.41 2.193-2.914 2.424-.893.138-1.716.069-2.538-.37-1.035-.507-1.716-1.384-2.022-2.561-.305-1.385-.14-2.7.752-3.877 1.481-1.985 4.63-1.892 6.11.07.447.76.823 2.168.753 3.046Zm-105.75-1.477 3.43.069c.071-.808-.587-1.454-1.48-1.546-.916-.116-1.88.6-1.95 1.476Zm5.592 1.476h-5.734c0 .139 0 .3.071.439.07.3.141.577.306.877.376.67 1.034.877 1.786.807.681-.069 1.127-.438 1.339-1.015 0-.07.07-.07.141-.07.588 0 1.269-.068 1.857-.068h.07c-.07.438-.235.807-.447 1.177-.587.876-1.41 1.384-2.467 1.546-.893.138-1.786.069-2.608-.37-1.129-.576-1.716-1.546-2.021-2.7-.236-1.176-.141-2.33.517-3.369 1.339-2.261 4.77-2.492 6.345-.3a5.31 5.31 0 0 1 .892 3l-.047.046Zm82.556-.23c-.517.069-1.034.069-1.48.23-.377.07-.682.139-1.034.3-.447.139-.588.508-.588.947 0 .438.305.738.752.877.681.23 1.48 0 2.021-.508.423-.53.423-1.177.329-1.846Zm0-1.316c0-.23-.07-.507-.07-.738-.071-.439-.376-.739-.823-.808a2.258 2.258 0 0 0-.964 0c-.517.139-.893.439-.893 1.016v.23l-1.927-.069c0-.37.071-.738.306-1.015a2.73 2.73 0 0 1 1.41-1.246c1.198-.439 2.374-.439 3.572.069.963.369 1.41 1.177 1.481 2.123.07.877 0 1.754 0 2.7v1.385h.681v1.546h-2.538v-.877l-.305.3c-1.199 1.015-3.197.946-4.325-.07-.963-.946-.963-2.861.517-3.576.682-.37 1.34-.508 2.092-.577.587-.07 1.199-.139 1.856-.231-.14-.162-.14-.162-.07-.162Zm-59.902-1.454c.306-.3.518-.576.823-.876.681-.577 1.41-.808 2.303-.67.681.139 1.034.508 1.269 1.108.07.138.07.3.141.439.07-.07.141-.231.235-.3.376-.577.893-1.108 1.645-1.247.681-.138 1.34-.138 1.856.3.447.37.588.877.682 1.385V16.14h1.128v.947h-2.232v-5.654c0-.23 0-.37-.071-.577-.141-.739-.681-1.108-1.48-.877-.588.138-.964.508-1.34 1.015a2.526 2.526 0 0 0-.447 1.454v3.738h1.199v.947h-2.444V11.41c0-.231 0-.439-.07-.67-.142-.438-.447-.669-.893-.738-.682-.07-1.128.23-1.575.67-.517.576-.823 1.176-.752 1.984v3.6h1.199v.946H38.62v-.946h1.128v-6.07H38.62v-.945h2.373c-.211.507-.211.969-.14 1.476ZM27.2 12.98h-2.468c0-.3 0-.67.071-.946h3.736v5.123h-1.175V15.54c-.07.07-.07.07-.07.139-.752 1.108-1.715 1.685-3.055 1.754-1.034 0-1.857-.37-2.679-1.015-.893-.808-1.41-1.824-1.645-2.931-.306-1.454-.141-2.931.446-4.316.447-.946 1.128-1.754 2.092-2.192 1.574-.738 3.501-.438 4.63 1.177 0 .07.07.07.14.138V6.68h1.128v3.3h-1.222c-.07-.438-.305-.808-.517-1.177-.587-.808-1.41-1.246-2.373-1.246-.893 0-1.645.438-2.162 1.108-.517.577-.752 1.315-.893 2.123-.141 1.107-.07 2.123.305 3.138.236.577.518 1.108 1.035 1.546.893.808 2.02.947 3.055.439 1.034-.439 1.715-1.685 1.621-2.931Zm31.607.23v-.507c-.07-.577-.234-1.177-.517-1.684-.587-.808-1.574-1.108-2.467-.67-.823.37-1.645 1.385-1.48 2.492.07.578 0 1.108.14 1.685.142.946 1.129 1.754 2.092 1.893.823.069 1.575-.37 1.927-1.108.165-.716.306-1.385.306-2.1Zm-5.733-5.86h-1.035v-.947h2.233v4.546c.07-.069.07-.138.141-.138.235-.37.587-.739.964-1.016 1.034-.738 2.303-.738 3.36.139.752.577 1.128 1.385 1.34 2.261.305 1.316.14 2.562-.588 3.739-.376.577-.893 1.107-1.575 1.385-1.033.369-2.232.069-2.984-.739-.141-.23-.376-.438-.587-.67v1.385h-2.303v-.946h1.127v-9h-.093Zm-17.884 5.86h-.141c-.681.07-1.34.231-2.092.37-.446.07-.893.23-1.269.508-.235.138-.446.369-.446.738-.141.877.517 1.754 1.48 1.823 1.035.07 2.163-.738 2.374-1.754.094-.669 0-1.176.094-1.684Zm1.034 3.14h1.128c0 .3.07.668.07.945h-2.303v-1.384l-.07.069c-.587.946-1.48 1.385-2.608 1.454-.964.07-1.716-.3-2.233-1.108-.447-.738-.588-1.454-.141-2.261.235-.508.681-.739 1.199-.947.681-.3 1.41-.438 2.161-.577.517-.069 1.128-.138 1.716-.23 0-.37 0-.808-.07-1.177-.142-.577-.588-.877-1.129-1.016-.446-.138-.963-.069-1.41 0-.587.139-.963.577-1.128 1.108-.07.139-.07.23-.305.23h-1.034c.235-.945.681-1.614 1.575-2.053a3.878 3.878 0 0 1 3.125 0c.823.37 1.269 1.015 1.41 1.892v4.685l.047.37Zm30.174-3.74h4.394c0-.668-.234-1.176-.516-1.684-.447-.577-.964-.877-1.716-.738-1.41.161-2.068 1.177-2.162 2.423Zm5.757.878H66.35c.07.3.07.507.141.738.07.439.235.877.517 1.315.588.878 1.927 1.177 2.75.67.376-.231.587-.577.822-.946.07-.139.141-.231.305-.231h1.128c-.07.138-.07.3-.14.438-.517 1.177-1.928 1.985-3.29 1.823-1.857-.138-3.126-1.384-3.431-3.23-.236-1.177-.071-2.331.587-3.37a3.28 3.28 0 0 1 2.373-1.615c1.481-.23 2.844.508 3.502 1.823.376.739.517 1.546.517 2.423l.023.162Zm35.086 2.192h.964v1.546h-3.737V15.68h.823v-4.823h-.823V9.31h2.749v1.177a.58.58 0 0 0 .141-.3c.306-.439.682-.877 1.27-.946.446-.139.963-.07 1.409 0l.071.069v1.754c-.235 0-.446-.07-.681-.07-.588-.069-1.199.07-1.645.439-.376.3-.517.738-.588 1.177v2.93c-.023.07-.023.07.047.139Zm-45.378-8.4h-1.129v-.877h2.303v9.877h1.034v.946h-3.336v-.946h1.127v-9Zm60.3 7.085c0 .438.071.877.235 1.315.306.577.752.946 1.411.946.657 0 1.198-.3 1.48-.877.141-.369.235-.669.305-1.107.071-.577 0-1.177-.305-1.685-.306-.577-.823-.877-1.48-.877-.659 0-1.035.37-1.34.877-.306.461-.306.9-.306 1.408Zm4.301-.139c0 .739-.141 1.385-.517 1.893-.588.876-1.41 1.176-2.468 1.107-.963-.07-1.644-.67-2.02-1.546-.376-.946-.447-1.985 0-2.93.446-.947 1.268-1.455 2.373-1.455 1.104 0 1.856.508 2.303 1.454a3.32 3.32 0 0 1 .329 1.477Zm3.29 2.93h-2.609v-.668h.823v-4.316h-.823v-.669h1.716v1.177c.305-.508.681-1.015 1.269-1.246a3.09 3.09 0 0 1 1.128 0v.808c-.141 0-.306 0-.447-.07-1.033-.069-1.927.67-1.927 1.685v2.562h.964l-.094.738Zm-10.434-.945h.963v.946h-.963v-.946ZM137.79 2.434v.877h.893c.07 0 .141 0 .235-.07.235-.069.305-.23.235-.507 0-.23-.141-.37-.376-.37-.305.07-.611.07-.987.07Zm1.269 1.108c.305.069.376.3.376.507 0 .208.07.508.07.739-.446 0-.376.069-.446-.37 0-.138 0-.3-.071-.438-.07-.23-.14-.37-.446-.37h-.893v1.108h-.376v-2.63H138.706c.376 0 .588.23.682.507.212.439.047.716-.329.947Z" />
    </g>
  </g>
  <defs>
    <clipPath id="a">
      <path fill="#fff" d="M.08.48h141v19H.08z" />
    </clipPath>
    <clipPath id="b">
      <path fill="#fff" d="M.08.48h141v19H.08z" />
    </clipPath>
  </defs>
</svg>
